<?xml version="1.0" encoding="UTF-8" standalone="no"?>
<svg
   width="1972.347837383532mm"
   height="1199.3734231062263mm"
   viewBox="0 0 1972.347837383532 1199.3734231062263"
   version="1.1"
   id="svg13"
   sodipodi:docname="GB5768.3-2009-4.17-L39-L39-colored.svg"
   inkscape:version="1.2.2 (732a01da63, 2022-12-09)"
   xmlns:inkscape="http://www.inkscape.org/namespaces/inkscape"
   xmlns:sodipodi="http://sodipodi.sourceforge.net/DTD/sodipodi-0.dtd"
   xmlns="http://www.w3.org/2000/svg"
   xmlns:svg="http://www.w3.org/2000/svg">
  <defs
     id="defs17" />
  <sodipodi:namedview
     id="namedview15"
     pagecolor="#ffffff"
     bordercolor="#000000"
     borderopacity="0.25"
     inkscape:showpageshadow="2"
     inkscape:pageopacity="0.0"
     inkscape:pagecheckerboard="0"
     inkscape:deskcolor="#d1d1d1"
     inkscape:document-units="mm"
     showgrid="false"
     inkscape:zoom="0.16151225"
     inkscape:cx="5039.8653"
     inkscape:cy="2755.2089"
     inkscape:window-width="3840"
     inkscape:window-height="2036"
     inkscape:window-x="-12"
     inkscape:window-y="-12"
     inkscape:window-maximized="1"
     inkscape:current-layer="svg13" />
  <path
     style="opacity:1;fill:#ffffff;fill-opacity:1;stroke:none;stroke-width:0.819;stroke-dasharray:none"
     d="m 335.00425,1182.2446 c -72.41398,-5.8192 -133.29177,-29.6043 -189.20778,-73.924 -12.46711,-9.8816 -39.45701,-36.8379 -49.71978,-49.658 -38.52782,-48.1283 -63.21472,-105.15852 -71.44372,-165.0449 -4.6739,-34.01433 -3.6229,-73.99207 2.8321,-107.72404 26.4691,-138.31914 136.90799,-245.4084 276.13041,-267.75534 32.80415,-5.26547 71.78654,-5.26547 104.59069,0 29.80457,4.78401 60.79786,14.17812 87.26778,26.45098 4.00484,1.85684 7.41143,3.37608 7.57021,3.37608 0.51776,0 9.95757,-19.25773 16.34114,-33.33697 39.70025,-87.5602 53.19676,-150.49616 51.69379,-241.05526 -0.25794,-15.54206 -0.86834,-32.68134 -1.35639,-38.08727 -4.46283,-49.43075 -12.79879,-83.51474 -25.4844,-104.20019 -8.26167,-13.47168 -17.09737,-21.76905 -35.98934,-33.796575 -9.25361,-5.89128 -11.49389,-8.3822 -12.05468,-13.40333 -1.01502,-9.08815 12.82377,-19.78727 34.59041,-26.74267 20.96357,-6.69879 44.59578,-10.72238 124.90989,-21.26701 87.28284,-11.45957 98.34412,-12.63321 119.58587,-12.68855 14.54653,-0.0379 17.44684,0.17107 21.69589,1.56312 6.33222,2.07452 10.81365,6.51325 14.60836,14.46916 3.79664,7.96001 4.86979,12.18799 4.89881,19.30035 0.0447,10.95112 -6.63263,20.49563 -18.12168,25.90299 l -5.47114,2.57501 -25.39153,0.575 c -35.94947,0.81408 -46.75709,2.34061 -120.81448,17.064495 -44.6269,8.87259 -48.52072,10.00352 -49.00406,14.23285 -0.43858,3.83773 0.25262,5.31456 8.49362,18.14736 22.76608,35.4511 31.71989,65.66295 30.44497,102.72702 -0.4921,14.30591 -2.53534,28.41944 -5.86795,40.53244 l -1.93144,7.02019 h 309.16473 309.16465 l 3.9012,-3.9011 c 7.8145,-7.81455 10.7222,-17.30363 13.1685,-42.97573 0.9131,-9.58158 2.2562,-20.38047 2.9846,-23.99755 1.6976,-8.42935 0.8819,-11.80545 -4.2248,-17.48532 -4.9412,-5.49578 -11.8284,-9.6549 -33.9272,-20.48828 -21.4731,-10.52666 -27.8785,-14.28614 -46.4841,-27.28283 -30.632,-21.39749 -36.7346,-28.36632 -28.8714,-32.96943 2.6644,-1.55972 4.0812,-1.66934 20.0675,-1.5526 9.4604,0.0691 68.9871,0.36759 132.2816,0.66335 65.018,0.30381 116.3336,0.86394 117.9603,1.28761 5.9839,1.55836 10.2675,5.16566 13.1947,11.1117 2.5215,5.12208 2.7278,6.13128 2.6506,12.97409 -0.1492,13.23231 -5.1308,23.28607 -17.9056,36.13609 -9.6894,9.7465 -20.4474,17.18905 -36.95,25.56265 -8.6626,4.39549 -12.3508,6.76358 -14.9854,9.62178 -8.846,9.59678 -12.3624,26.78203 -12.3624,60.417 v 17.25385 l 70.5529,122.35741 c 56.9757,98.81102 70.8072,122.24977 71.8744,121.79821 0.7268,-0.30758 6.6489,-2.39107 13.1603,-4.62997 62.006,-21.32068 131.8442,-23.44489 195.1262,-5.935 55.9337,15.47659 104.3762,43.26112 145.5403,83.47559 55.404,54.12591 89.2405,123.19055 98.941,201.95143 1.1129,9.0347 1.4628,17.85463 1.4628,36.85865 0,26.74596 -0.9036,37.67045 -4.946,59.79295 -20.2764,110.96341 -94.5992,203.93211 -198.3558,248.11911 -122.8872,52.334 -265.8949,25.9635 -362.1644,-66.783 -50.6189,-48.7664 -85.1786,-112.99411 -97.133,-180.51704 -1.1565,-6.53217 -2.2804,-12.70601 -2.4977,-13.71963 -0.3944,-1.8398 -0.4242,-1.84292 -17.5129,-1.84292 h -17.1179 l -2.1997,6.75743 c -3.0067,9.23628 -11.5322,26.58787 -17.2045,35.01572 -12.3698,18.37897 -29.1932,34.48233 -47.1993,45.17954 -3.1019,1.84277 -5.769,3.58103 -5.9272,3.8627 -0.1582,0.28168 0.7166,6.85909 1.9439,14.61635 l 2.2314,14.10415 5.9652,8.011 c 3.2807,4.4061 6.1907,8.264 6.4664,8.5731 0.2757,0.3092 9.716,2.4758 20.9784,4.8147 11.2623,2.3389 20.5662,4.3253 20.6752,4.4142 0.1858,0.1513 3.9151,27.5024 4.4647,32.7437 l 0.2516,2.3997 -55.288,8.8243 c -30.4084,4.8533 -56.0252,8.8408 -56.9262,8.8609 -1.474,0.033 -2.0003,-1.6663 -5.2515,-16.9574 -1.9874,-9.3468 -3.7543,-17.3946 -3.9267,-17.8838 -0.1724,-0.4893 4.218,-2.8632 9.7564,-5.2755 5.5385,-2.4122 10.1677,-4.4441 10.2873,-4.5153 0.1195,-0.071 -3.4329,-10.2292 -7.8943,-22.5733 l -8.1116,-22.4439 -15.04,-0.094 c -16.9123,-0.1057 -27.7977,-1.48999 -41.1097,-5.22794 -48.2648,-13.55254 -86.5583,-49.75913 -102.14313,-96.57641 -11.72734,-35.22951 -10.31322,-70.88198 4.2223,-106.45219 1.03719,-2.53821 0.99607,-2.84978 -0.50988,-3.85993 -0.90099,-0.60439 -23.56908,-17.25584 -50.37352,-37.0032 C 895.89064,732.36586 847.23722,696.53551 814.57634,672.49025 730.82577,610.83226 683.37743,575.8886 651.16963,552.14836 l -27.84877,-20.52719 -14.41193,-0.0188 -14.41194,-0.0188 -0.50263,14.53869 c -0.56443,16.32678 -2.28978,34.78763 -4.71466,50.44628 l -1.62848,10.51605 8.56972,8.94321 c 54.72813,57.11322 86.37722,127.49286 93.09118,207.0115 1.39784,16.55554 0.55194,50.78317 -1.66328,67.3019 -8.7445,65.20691 -34.4252,123.554 -76.42764,173.6452 -10.99532,13.1128 -32.52002,34.1855 -45.64557,44.687 -50.31142,40.2536 -107.84504,64.1927 -173.23567,72.0819 -10.17834,1.228 -48.27352,2.2174 -57.33571,1.4892 z M 1653.3156,1093.896 c 82.7401,-11.521 152.6848,-61.7864 189.2179,-135.98042 3.9928,-8.1089 8.5892,-18.36552 10.2143,-22.79243 18.5269,-50.469 20.6583,-103.94666 6.1843,-155.16119 -26.5513,-93.9483 -106.8346,-163.96729 -203.5744,-177.54713 -36.0372,-5.05873 -72.3741,-2.18961 -108.3179,8.5526 -3.2661,0.9761 -5.9383,1.93471 -5.9383,2.13022 0,0.1955 27.9629,51.50559 62.1399,114.02239 34.177,62.51681 62.8918,115.15035 63.8108,116.96338 7.8967,15.57951 0.424,35.94817 -16.0152,43.65318 l -4.6836,2.19522 -135.2445,0.40955 -135.2444,0.40955 2.666,11.87667 c 10.4608,46.60212 32.3875,86.20233 66.6834,120.43231 14.8696,14.8411 23.9818,22.3142 40.2245,32.9892 32.2961,21.2256 71.1976,34.7887 111.9157,39.0194 10.5853,1.0999 44.7886,0.3833 55.9615,-1.1725 z m -1260.21838,-5.2478 c 42.64141,-6.9936 81.5019,-24.0285 114.46629,-50.1776 11.00923,-8.7331 29.78171,-27.5007 38.38249,-38.3723 49.66674,-62.78048 65.44398,-143.96727 42.95823,-221.05523 -8.39332,-28.77484 -24.58096,-59.71718 -43.29343,-82.75447 -6.72409,-8.27818 -14.44508,-16.71564 -14.88953,-16.27122 -0.14991,0.14992 -1.73135,3.44512 -3.5143,7.32267 -1.78295,3.87754 -6.286,12.71397 -10.00678,19.63647 -27.26854,50.73335 -59.55128,94.37386 -112.61823,152.23977 -31.34497,34.17959 -48.00057,40.90868 -72.03495,29.10326 -18.34775,-9.01218 -26.2618,-27.89406 -18.53811,-44.22941 4.08728,-8.64442 9.59522,-15.34396 35.78831,-43.53068 31.91631,-34.34556 46.50565,-52.71161 69.54599,-87.5492 14.54724,-21.99581 45.17511,-73.0106 47.55147,-79.20328 0.41812,-1.08963 -0.67672,-1.99342 -5.13392,-4.23804 -42.54138,-21.4235 -96.25521,-29.11293 -146.00492,-20.90145 -48.70899,8.03971 -95.67687,32.04967 -130.76887,66.84901 -72.57108,71.96585 -92.41404,180.26383 -50.17999,273.86981 34.543,76.55989 107.33549,129.70419 192.37505,140.44899 13.71074,1.7324 52.3584,1.0363 65.9152,-1.1871 z M 1119.2746,934.54694 c 19.8189,-2.07711 36.4731,-10.03006 50.3931,-24.06443 14.8719,-14.99404 22.8831,-33.16028 23.916,-54.23263 1.6817,-34.3064 -16.4722,-64.66776 -47.4367,-79.33584 -19.73,-9.34619 -44.0196,-10.31427 -64.6224,-2.57553 -40.2629,15.12335 -62.2117,58.65386 -50.604,100.36185 8.9099,32.01446 37.6812,56.35975 70.7437,59.86093 8.3302,0.88206 9.0626,0.88148 17.6103,-0.014 z M 1287.5324,815.6002 c 0.2076,-1.01362 0.6086,-4.23876 0.8912,-7.16695 2.7449,-28.44448 12.9467,-65.27903 26.769,-96.65161 18.9936,-43.10985 50.9491,-86.27427 85.8031,-115.90001 4.24,-3.60394 8.9721,-7.67363 10.5156,-9.04375 l 2.8065,-2.49113 -50.691,-96.50695 c -27.8801,-53.07883 -51.0424,-96.55681 -51.4718,-96.61771 -0.4295,-0.061 -22.9501,78.93547 -50.0459,175.54752 l -49.2651,175.6583 6.5139,7.10311 c 17.5975,19.18912 29.9328,41.3458 35.871,64.43101 l 0.8954,3.4811 h 15.5154 c 15.4321,0 15.5174,-0.01 15.8927,-1.84293 z m 247.4629,-12.69577 c -1.3115,-3.43143 -78.7389,-140.25062 -79.3739,-140.25869 -1.3639,-0.0175 -21.5067,20.97593 -28.2837,29.47795 -19.1039,23.96669 -33.3821,50.32255 -42.8206,79.04136 -2.494,7.58867 -6.5826,23.53558 -7.6125,29.6917 l -0.5825,3.48109 h 79.6105 c 75.4823,0 79.5822,-0.0743 79.0627,-1.43341 z m -501.2375,-78.63178 c 3.5649,-2.13987 10.0681,-5.54929 14.4515,-7.5765 4.3834,-2.02724 7.9757,-4.18502 7.9829,-4.79507 0.01,-0.61008 -4.2256,-15.43894 -9.4063,-32.95304 -5.1807,-17.51412 -9.4194,-32.03487 -9.4194,-32.26837 0,-0.23349 -5.6844,-0.42452 -12.632,-0.42452 h -12.632 l -2.7258,-3.15923 c -1.4991,-1.7376 -5.5635,-6.2743 -9.0318,-10.08158 l -6.30605,-6.92232 1.26469,-8.55252 c 0.69556,-4.70392 1.34114,-8.63338 1.43459,-8.73218 0.37148,-0.39251 113.80337,-13.33143 114.11767,-13.01713 0.1852,0.18524 1.2381,6.36328 2.3397,13.72897 1.1016,7.3657 2.2122,14.40579 2.4679,15.64465 l 0.465,2.25248 h -15.3057 c -13.1715,0 -15.2408,0.16888 -14.8409,1.21131 0.5173,1.34805 21.8257,73.24418 21.8257,73.64153 0,0.13801 5.068,0.4907 11.2623,0.78375 6.1943,0.29305 14.7038,1.21783 18.9101,2.05505 5.3592,1.06669 7.7432,1.25126 7.9671,0.61685 0.791,-2.24155 90.4562,-343.69169 90.4562,-344.46218 0,-0.60812 -88.3236,-0.86683 -295.93562,-0.86683 H 644.53195 l 0.61478,5.52879 c 1.06236,9.55421 0.77018,33.98229 -0.52361,43.77891 -0.67235,5.09114 -2.1214,12.94249 -3.22011,17.44742 -1.09871,4.50495 -1.74649,8.40933 -1.43954,8.6764 0.30697,0.26704 68.00945,51.49472 150.44999,113.83923 82.44051,62.34453 169.24266,128.00597 192.89363,145.91429 23.65101,17.90832 43.21941,32.5655 43.48531,32.57153 0.266,0.006 3.4004,-1.73985 6.9654,-3.87969 z"
     id="path938" />
</svg>
