<?xml version="1.0"?>
<!DOCTYPE svg PUBLIC "-//W3C//DTD SVG 1.1//EN" "http://www.w3.org/Graphics/SVG/1.1/DTD/svg11.dtd">
<svg width="1972.347837383532mm" height="1199.3734231062263mm" viewBox="0 0 1972.347837383532 1199.3734231062263" xmlns="http://www.w3.org/2000/svg" version="1.1">
<g id="Sketch" transform="translate(975.804763,644.214455) scale(1,-1)">
<path id="Sketch_w0000"  d="M -474.45400000000006 100.11541941020602 C -422.200745 204.097275 -409.85078450000003 269.7847675 -407.12128458333336 335.2238149166667 C -404.3917846666667 400.66286233333335 -411.2827453333333 465.8534646666667 -426.6289978333333 502.02794883333337 C -441.97525033333335 538.202433 -465.77679466666666 545.360799 -475.9764915 553.4680785 C -486.17618833333336 561.575358 -482.7740376666667 570.631551 -473.06454966666666 578.2466938333333 C -463.35506166666664 585.8618366666667 -447.3382363333333 592.0359293333333 -420.449651 597.4494425 C -393.56106566666665 602.8629556666666 -355.8007203333333 607.5158893333332 -314.45872249999996 612.9665933333333 C -273.11672466666664 618.4172973333333 -228.1930743333333 624.6657716666666 -202.95739216666664 625.2398479999999 C -177.72170999999997 625.8139243333334 -172.173996 620.7136026666667 -167.3445715 612.4890338333333 C -162.515147 604.264465 -158.40401200000002 592.915649 -160.8646976666667 582.6255083333333 C -163.32538333333335 572.3353676666667 -172.35788966666667 563.1039023333333 -184.30339800000002 560.2405601666667 C -196.24890633333334 557.3772180000001 -211.10741666666667 560.8819990000001 -240.37051733333334 557.8884261666667 C -269.633618 554.8948533333333 -313.301309 545.4029266666666 -340.41360099999997 540.078891 C -367.525893 534.7548553333334 -378.082786 533.5987106666666 -379.5579793333334 528.7967613333333 C -381.0331726666667 523.994812 -373.42666633333334 515.547058 -364.7915191666667 501.301478 C -356.15637200000003 487.05589799999996 -346.492584 467.01249199999995 -342.26467875000003 442.29378275 C -338.0367735 417.57507350000003 -339.244751 388.181061 -347.839 360.614 L 268.772 360.614 C 289.828278 374.526001 283.640747 409.883392 289.5316315 432.95372 C 295.422516 456.024048 250.931107 463.537506 216.236641 487.551071 C 181.542175 511.564636 143.091003 535.430908 204.745483 531.747833 C 266.399963 528.064758 420.499359 530.863892 438.8410185 530.4956055 C 457.182678 530.127319 462.92825300000004 517.7522125 463.22290033333337 505.6717555833334 C 463.5175476666667 493.5912986666667 458.36126733333333 481.80549133333335 448.14690683333333 470.7071941666667 C 437.93254633333333 459.608897 422.6601056666667 449.19811000000004 407.76251758333336 442.27560675 C 392.8649295 435.3531035 378.342194 431.918884 380.60611 356.229828 L 521.5772854083697 111.7527666116903 A 335 335 0 1 0 311.11 -246.192L 277.487362558688 -246.1919181722842 A 150 150 0 0 0 204.935 -336.361L 209.265824 -364.344116 L 222.08281000000002 -381.433441 L 263.587036 -390.125427 L 268.409058 -426.272644 L 153.350784 -444.540558 L 145.287674 -407.214752 L 165.602798 -398.39108300000004 L 149.46765007364877 -353.65797249355325 A 150 150 0 0 0 -3.50365 -143.205L -354.587097 115.308807 L -382.322571 115.308807 Q -382.780334 77.233345 -389.200643187212 40.47893098780773 A 335 335 0 1 0 -474.454 100.115" stroke="#000000" stroke-width="0.35 px" style="stroke-width:0.35;stroke-miterlimit:4;stroke-dasharray:none;stroke-linecap:square;fill:none;fill-opacity:1;fill-rule: evenodd"/>
<circle cx="133.391518" cy="-204.521934" r="82.5" stroke="#000000" stroke-width="0.35 px" style="stroke-width:0.35;stroke-miterlimit:4;stroke-dasharray:none;stroke-linecap:square;fill:none"/>
<path id="Sketch_w0002"  d="M 279.246947396854 -169.50488507437888 A 150 150 0 0 1 236.011 -95.1183L 334.600403 256.41342199999997 L 436.15248148624505 63.05476464533919 A 335 335 0 0 1 309.411 -169.505L 279.246947396854 -169.50488507437888 " stroke="#000000" stroke-width="0.35 px" style="stroke-width:0.35;stroke-miterlimit:4;stroke-dasharray:none;stroke-linecap:square;fill:none;fill-opacity:1;fill-rule: evenodd"/>
<path id="Sketch_w0003"  d="M 49.438866514822806 -80.21605196456139 A 150 150 0 0 0 78.5612 -64.9023L 59.13524907043462 0.8118000450756057 L 34.286715 0.8118000450756057 L 16.018687 21.025273000000002 L 18.536602 39.368023 L 134.185043 52.774403 L 139.219543 19.098869 L 109.07676372264406 19.6593791399217 L 131.01127099245704 -54.54082044171531 A 150 150 0 0 0 167.823 -58.5271L 258.54483 286.297729 L -332.259613 286.297729 Q -327.221313 247.610764 -337.342 212.462 L 49.43886651482285 -80.21605196456136 " stroke="#000000" stroke-width="0.35 px" style="stroke-width:0.35;stroke-miterlimit:4;stroke-dasharray:none;stroke-linecap:square;fill:none;fill-opacity:1;fill-rule: evenodd"/>
<path id="Sketch_w0004"  d="M -510.51200000003826 14.723017299965392 A 242.5 242.5 0 1 1 -446.296 -33.2378C -479.880188 -105.306503 -522.046094 -155.2007515 -548.904047 -186.02254241666668 C -575.762 -216.84433333333334 -587.3119999999999 -228.59366666666665 -597.4794763333332 -236.2590493333333 C -607.6469526666666 -243.92443199999997 -616.4319053333334 -247.50586399999997 -626.6485190000001 -246.84238166666665 C -636.8651326666667 -246.17889933333333 -648.5134073333334 -241.2705026666667 -655.9492593333334 -234.34747050000001 C -663.3851113333334 -227.42443833333334 -666.6085406666666 -218.48677066666667 -667.0114643333333 -210.61136133333332 C -667.4143879999999 -202.735952 -664.9968059999999 -195.922801 -658.9293113333333 -187.407504 C -652.8618166666666 -178.89220699999998 -643.1444093333333 -168.67476399999998 -621.6425171666667 -145.58066225 C -600.140625 -122.4865605 -566.854248 -86.5158 -510.51200000003826 14.723017299965392 " stroke="#000000" stroke-width="0.35 px" style="stroke-width:0.35;stroke-miterlimit:4;stroke-dasharray:none;stroke-linecap:square;fill:none;fill-opacity:1;fill-rule: evenodd"/>
<path id="Sketch_w0005"  d="M 399.16383887872695 -243.04000006518214 A 247.5 247.5 0 1 1 564.336 34.1975L 690.509 -196.586 C 700.32135 -218.675552 684.557861 -243.130981 663.277 -243.04000006518214 L 399.16383887872695 -243.04000006518214 " stroke="#000000" stroke-width="0.35 px" style="stroke-width:0.35;stroke-miterlimit:4;stroke-dasharray:none;stroke-linecap:square;fill:none;fill-opacity:1;fill-rule: evenodd"/>
<path id="Sketch_w0006"  d="M 478.3478417498951 -15.669611126966515 L 557.481873 -156.20861810227336 L 399.46759304561243 -156.20861810227336 A 247.5 247.5 0 0 0 478.348 -15.6696" stroke="#000000" stroke-width="0.35 px" style="stroke-width:0.35;stroke-miterlimit:4;stroke-dasharray:none;stroke-linecap:square;fill:none;fill-opacity:1;fill-rule: evenodd"/>
<title>b'L39'</title>
</g>
</svg>